<svg xmlns="http://www.w3.org/2000/svg" width="46" height="46" viewBox="0 0 46 46"><g transform="translate(0 0.249)"><circle cx="23" cy="23" r="23" transform="translate(0 -0.249)" fill="#ff505e"/><g transform="translate(10.12 9.742)"><text transform="translate(6.44 18.756)" font-size="7" font-family="Kanit-Regular, Kanit"><tspan x="0" y="0">PDF</tspan></text><g transform="translate(0)"><path d="M18.063,4.583l-.6.663Zm4.706,4.235-.6.663Zm2.737,3.017-.814.363h0ZM3.534,24.524l.63-.63h0Zm20.99,0-.63-.63h0Zm-8.117.5H11.652v1.783h4.755ZM3.033,16.407V11.652H1.25v4.755Zm21.992-.52v.52h1.783v-.52ZM17.466,5.246l4.706,4.235,1.193-1.325L18.659,3.92Zm9.342,10.642c0-2.007.018-3.278-.488-4.415l-1.629.725c.316.71.334,1.525.334,3.69ZM22.172,9.481c1.609,1.448,2.2,2.007,2.519,2.717l1.629-.725c-.506-1.137-1.463-1.974-2.955-3.317ZM11.687,3.033a9.467,9.467,0,0,1,3.222.256l.639-1.665a10.856,10.856,0,0,0-3.861-.375Zm6.972.887a10.8,10.8,0,0,0-3.111-2.3L14.91,3.29a9.4,9.4,0,0,1,2.557,1.956ZM11.652,25.025a42.777,42.777,0,0,1-5.1-.166,3.86,3.86,0,0,1-2.388-.965L2.9,25.155a5.6,5.6,0,0,0,3.411,1.472,44.1,44.1,0,0,0,5.336.182ZM1.25,16.407a44.088,44.088,0,0,0,.182,5.336A5.6,5.6,0,0,0,2.9,25.155l1.261-1.261A3.86,3.86,0,0,1,3.2,21.506a42.789,42.789,0,0,1-.166-5.1Zm15.157,10.4a44.094,44.094,0,0,0,5.336-.182,5.6,5.6,0,0,0,3.412-1.472l-1.261-1.261a3.86,3.86,0,0,1-2.388.965,42.779,42.779,0,0,1-5.1.166Zm8.619-10.4a42.779,42.779,0,0,1-.166,5.1,3.86,3.86,0,0,1-.965,2.388l1.261,1.261a5.6,5.6,0,0,0,1.472-3.412,44.094,44.094,0,0,0,.182-5.336ZM3.033,11.652a42.787,42.787,0,0,1,.166-5.1,3.86,3.86,0,0,1,.965-2.388L2.9,2.9A5.6,5.6,0,0,0,1.432,6.315a44.089,44.089,0,0,0-.182,5.336Zm8.654-10.4a44.52,44.52,0,0,0-5.362.182A5.611,5.611,0,0,0,2.9,2.9L4.165,4.165a3.872,3.872,0,0,1,2.4-.965,43.221,43.221,0,0,1,5.126-.166Z" transform="translate(-1.25 -1.25)"/><path d="M13,2.5V5.472c0,2.8,0,4.2.87,5.073s2.272.87,5.073.87H23.7" transform="translate(0.968 -1.014)" fill="rgba(0,0,0,0)" stroke="#000" stroke-width="1.5"/></g></g></g></svg>