<svg xmlns="http://www.w3.org/2000/svg" width="23.001" height="23" viewBox="0 0 23.001 23">
  <g id="Group_91681" data-name="Group 91681" transform="translate(0 -0.501)">
    <path id="Path_74166" data-name="Path 74166" d="M18.209,93.483a.958.958,0,0,0-.958.958v7.667a.959.959,0,0,1-.958.958H2.875a.959.959,0,0,1-.958-.958V88.691a.959.959,0,0,1,.958-.958h7.667a.958.958,0,0,0,0-1.917H2.875A2.879,2.879,0,0,0,0,88.691v13.417a2.879,2.879,0,0,0,2.875,2.875H16.292a2.879,2.879,0,0,0,2.875-2.875V94.442A.958.958,0,0,0,18.209,93.483Zm0,0" transform="translate(0 -81.483)" fill="#fdd21c"/>
    <path id="Path_74167" data-name="Path 74167" d="M182.626,75.844a.485.485,0,0,0-.131.244l-.678,3.389a.479.479,0,0,0,.471.573.456.456,0,0,0,.094-.009l3.388-.678a.477.477,0,0,0,.245-.131l7.583-7.583-3.388-3.388Zm0,0" transform="translate(-173.641 -64.717)" fill="#fdd21c"/>
    <path id="Path_74168" data-name="Path 74168" d="M396.159,1.2a2.4,2.4,0,0,0-3.388,0l-1.326,1.326,3.388,3.388,1.326-1.326a2.4,2.4,0,0,0,0-3.388Zm0,0" transform="translate(-373.86)" fill="#fdd21c"/>
  </g>
</svg>
