<svg xmlns="http://www.w3.org/2000/svg" width="20.293" height="21" viewBox="0 0 20.293 21"><g transform="translate(-0.36 -0.257)"><path d="M10.02.257A6.045,6.045,0,0,0,6.542,11.251,9.829,9.829,0,0,0,.36,20.359a.955.955,0,0,0,1.907,0,7.894,7.894,0,0,1,12.06-6.722.958.958,0,0,0,1.009-1.629,9.79,9.79,0,0,0-1.748-.829A6.038,6.038,0,0,0,10.02.257Zm0,1.91A4.143,4.143,0,1,1,5.878,6.312,4.136,4.136,0,0,1,10.02,2.167Zm9.649,11.448a.955.955,0,0,0-.775.436l-3.287,4.927L13.545,17.6a.959.959,0,1,0-1.063,1.593L15.347,21.1a.955.955,0,0,0,1.323-.267l3.817-5.724a.955.955,0,0,0-.818-1.492Z" transform="translate(0 0)" fill="#fdd21c"/></g></svg>