<svg xmlns="http://www.w3.org/2000/svg" width="21.938" height="21.938" viewBox="0 0 21.938 21.938"><g transform="translate(-329 -1469)"><circle cx="10.969" cy="10.969" r="10.969" transform="translate(329 1469)" fill="#13bfaf"/><g transform="translate(334.747 1474.747)"><path d="M9.073,6.475a5.6,5.6,0,0,1-1.759-.28.8.8,0,0,0-.782.165L5.423,7.2A6.129,6.129,0,0,1,2.667,4.441l.813-1.08a.8.8,0,0,0,.2-.808A5.609,5.609,0,0,1,3.395.792.792.792,0,0,0,2.6,0H.792A.792.792,0,0,0,0,.792,9.083,9.083,0,0,0,9.073,9.864a.792.792,0,0,0,.792-.792V7.266A.792.792,0,0,0,9.073,6.475Z" fill="#fff"/></g></g></svg>