<svg xmlns="http://www.w3.org/2000/svg" xmlns:xlink="http://www.w3.org/1999/xlink" width="23.386" height="24.85" viewBox="0 0 23.386 24.85"><defs><clipPath id="a"><path d="M0-682.665H23.386v24.85H0Z" transform="translate(0 681.201)" fill="#fff"/></clipPath></defs><g transform="translate(0 1.463)"><g transform="translate(0 0.002)" clip-path="url(#a)"><path d="M-360.39,0h-11.578a1.206,1.206,0,0,0-1.206,1.206V17.821a1.206,1.206,0,0,0,1.206,1.206h11.942a1.206,1.206,0,0,0,1.206-1.206V7.594" transform="translate(374.88 1.445)" fill="none" stroke="#000" stroke-linecap="round" stroke-linejoin="round" stroke-miterlimit="10" stroke-width="1.2"/><path d="M147.4-533.243h-8.231v-1.929H147.4Z" transform="translate(-134.402 540.224)" fill="none" stroke="#000" stroke-linecap="round" stroke-linejoin="round" stroke-miterlimit="10" stroke-width="1.2"/><path d="M0,0H8.231" transform="translate(4.767 9.484)" fill="none" stroke="#000" stroke-linecap="round" stroke-linejoin="round" stroke-miterlimit="10" stroke-width="1.2"/><path d="M0,0H8.231" transform="translate(4.767 11.65)" fill="none" stroke="#000" stroke-linecap="round" stroke-linejoin="round" stroke-miterlimit="10" stroke-width="1.2"/><path d="M0,0H8.231" transform="translate(4.767 13.816)" fill="none" stroke="#000" stroke-linecap="round" stroke-linejoin="round" stroke-miterlimit="10" stroke-width="1.2"/><path d="M0,0H8.231" transform="translate(4.767 15.983)" fill="none" stroke="#000" stroke-linecap="round" stroke-linejoin="round" stroke-miterlimit="10" stroke-width="1.2"/><path d="M-244.748-122.4a4.341,4.341,0,0,1-4.341,4.342,4.341,4.341,0,0,1-4.341-4.342,4.341,4.341,0,0,1,4.341-4.342A4.341,4.341,0,0,1-244.748-122.4Z" transform="translate(266.428 127.199)" fill="none" stroke="#000" stroke-linecap="round" stroke-linejoin="round" stroke-miterlimit="10" stroke-width="1.2"/><path d="M0,0V3.123" transform="translate(17.341 4.2)" fill="none" stroke="#000" stroke-linecap="round" stroke-linejoin="round" stroke-miterlimit="10" stroke-width="1.2"/><path d="M-25.753-12.877a.457.457,0,0,1-.457.457.457.457,0,0,1-.457-.457.457.457,0,0,1,.457-.457.457.457,0,0,1,.457.457" transform="translate(43.549 15.607)"/><path d="M0,0V2.32" transform="translate(19.171 8.939)" fill="none" stroke="#000" stroke-linecap="round" stroke-linejoin="round" stroke-miterlimit="10" stroke-width="1.2"/><path d="M-404.643,0V6.335a1.206,1.206,0,0,1-1.206,1.206h-11.942A1.206,1.206,0,0,1-419,6.335V5.221" transform="translate(423.814 15.388)" fill="none" stroke="#000" stroke-linecap="round" stroke-linejoin="round" stroke-miterlimit="10" stroke-width="1.2"/><path d="M0,0H0" transform="translate(19.171 13.315)" fill="none" stroke="#000" stroke-linecap="round" stroke-linejoin="round" stroke-miterlimit="10" stroke-width="1.2"/></g></g></svg>