<svg xmlns="http://www.w3.org/2000/svg" width="22.636" height="19.806" viewBox="0 0 22.636 19.806"><g transform="translate(0 -32.004)"><g transform="translate(0 36.248)"><path d="M21.929,136.485a.708.708,0,0,0-.707.707v4.952H1.415v-8.489H9.2a.707.707,0,1,0,0-1.415H1.415v-2.83H9.2A.707.707,0,1,0,9.2,128H1.415A1.415,1.415,0,0,0,0,129.411v12.733a1.415,1.415,0,0,0,1.415,1.415H21.222a1.415,1.415,0,0,0,1.415-1.415v-4.952A.708.708,0,0,0,21.929,136.485Z" transform="translate(0 -127.996)"/></g><g transform="translate(2.83 44.737)"><path d="M67.537,320h-2.83a.707.707,0,1,0,0,1.415h2.83a.707.707,0,0,0,0-1.415Z" transform="translate(-64 -319.996)"/></g><g transform="translate(11.318 32.004)"><path d="M266.889,34.182l-4.952-2.122a.722.722,0,0,0-.559,0l-4.952,2.122a.709.709,0,0,0-.427.651v2.83c0,3.892,1.439,6.167,5.307,8.4a.711.711,0,0,0,.7,0c3.868-2.223,5.307-4.5,5.307-8.4v-2.83A.708.708,0,0,0,266.889,34.182Zm-.986,3.48c0,3.267-1.081,5.065-4.244,6.961-3.163-1.9-4.244-3.7-4.244-6.961V35.3l4.244-1.819L265.9,35.3Z" transform="translate(-256 -32.004)"/></g><g transform="translate(14.148 36.249)"><path d="M325.405,128.17a.712.712,0,0,0-.995.11l-2.224,2.781-.88-1.316a.707.707,0,0,0-1.177.784l1.415,2.122a.713.713,0,0,0,.559.316h.03a.708.708,0,0,0,.553-.266l2.83-3.537A.708.708,0,0,0,325.405,128.17Z" transform="translate(-320.011 -128.016)"/></g></g></svg>