<svg xmlns="http://www.w3.org/2000/svg" width="13.496" height="13.496" viewBox="0 0 13.496 13.496"><g transform="translate(-2.25 -2.25)"><path d="M4.571,4.571,4.2,4.2h0Zm-.876.876-.519,0a.519.519,0,0,0,.516.516Zm1.759.528a.519.519,0,1,0,.005-1.038ZM4.205,3.683a.519.519,0,0,0-1.038.005ZM3.341,8.157a.519.519,0,0,0-1.029-.141ZM13.747,4.249A6.748,6.748,0,0,0,4.2,4.2l.734.734a5.71,5.71,0,0,1,8.075.044Zm-9.5,9.5a6.748,6.748,0,0,0,9.543.044l-.734-.734a5.71,5.71,0,0,1-8.075-.044Zm9.543.044a6.748,6.748,0,0,0-.044-9.543l-.734.734a5.71,5.71,0,0,1,.044,8.075ZM4.2,4.2l-.876.876.734.734.876-.876ZM3.692,5.967l1.762.009.005-1.038L3.7,4.929Zm.522-.522L4.205,3.683l-1.038.005L3.176,5.45Zm-1.9,2.571a6.791,6.791,0,0,0,1.936,5.731l.734-.734A5.753,5.753,0,0,1,3.341,8.157Z" transform="translate(0 0)"/></g></svg>